<svg xmlns="http://www.w3.org/2000/svg" viewBox="0 0 1200 700" role="img" aria-labelledby="title desc">
  <title id="title">Stylized view of Lille</title>
  <desc id="desc">Geometric illustration of Lille's skyline with its belfry and northern French brick architecture.</desc>
  <rect width="1200" height="700" fill="#69c8bb"/>
  <circle cx="930" cy="130" r="76" fill="#f5d76e"/>
  <path d="M0 420 170 330 315 390 470 280 640 370 820 260 1010 350 1200 245V700H0Z" fill="#dce6e3"/>
  <path d="M0 500 145 430 275 470 420 375 560 455 720 355 870 430 1040 330 1200 405V700H0Z" fill="#fffaf0"/>
  <g fill="#ef634b" stroke="#102633" stroke-width="12" stroke-linejoin="round">
    <path d="M58 470h210v230H58z"/>
    <path d="m38 470 125-105 125 105z"/>
    <path d="M904 430h238v270H904z"/>
    <path d="m880 430 143-116 143 116z"/>
  </g>
  <g fill="#fffaf0" stroke="#102633" stroke-width="10">
    <path d="M300 500h190v200H300z"/>
    <path d="m278 500 117-88 117 88z"/>
    <path d="M713 478h165v222H713z"/>
    <path d="m692 478 103-82 104 82z"/>
  </g>
  <g fill="#102633">
    <path d="M545 210h112v490H545z"/>
    <path d="m524 210 77-92 77 92z"/>
    <rect x="570" y="58" width="62" height="78"/>
    <rect x="594" y="20" width="14" height="48"/>
    <circle cx="601" cy="286" r="34" fill="#f5d76e"/>
  </g>
  <g fill="#69c8bb" stroke="#102633" stroke-width="8">
    <rect x="92" y="520" width="45" height="58"/>
    <rect x="180" y="520" width="45" height="58"/>
    <rect x="335" y="545" width="42" height="55"/>
    <rect x="414" y="545" width="42" height="55"/>
    <rect x="749" y="530" width="38" height="52"/>
    <rect x="815" y="530" width="38" height="52"/>
    <rect x="946" y="490" width="46" height="60"/>
    <rect x="1052" y="490" width="46" height="60"/>
  </g>
  <path d="M0 635h1200v65H0z" fill="#102633"/>
  <path d="M55 665h1090" stroke="#fffaf0" stroke-width="10" stroke-dasharray="32 24"/>
</svg>
